<?xml version="1.0" standalone="no"?>
<!DOCTYPE svg PUBLIC "-//W3C//DTD SVG 20010904//EN"
 "http://www.w3.org/TR/2001/REC-SVG-20010904/DTD/svg10.dtd">
<svg version="1.0" xmlns="http://www.w3.org/2000/svg"
 width="735.000000pt" height="952.000000pt" viewBox="0 0 735.000000 952.000000"
 preserveAspectRatio="xMidYMid meet">

<g transform="translate(0.000000,952.000000) scale(0.100000,-0.100000)"
fill="#000000" stroke="none">
<path d="M4232 7607 c-46 -14 -121 -84 -143 -132 -22 -49 -25 -151 -5 -199 38
-91 133 -151 236 -150 213 4 319 261 172 418 -61 64 -172 92 -260 63z m154
-76 c55 -25 95 -79 102 -136 18 -161 -166 -261 -289 -158 -101 85 -67 264 56
302 47 15 87 12 131 -8z"/>
<path d="M4280 7445 c0 -33 -2 -35 -35 -35 -33 0 -35 -2 -35 -34 0 -32 3 -35
33 -38 29 -3 32 -6 35 -40 3 -34 5 -36 35 -35 29 2 32 5 35 40 3 35 5 37 38
37 32 0 34 2 34 35 0 33 -2 35 -35 35 -33 0 -35 2 -35 35 0 33 -2 35 -35 35
-33 0 -35 -2 -35 -35z"/>
<path d="M3564 7330 c-256 -39 -460 -234 -510 -487 -27 -134 0 -288 72 -418
38 -69 157 -185 226 -220 32 -17 58 -32 58 -35 0 -13 -106 -111 -125 -116 -11
-3 -48 -4 -80 -2 -60 3 -60 3 -63 35 -4 43 -17 45 -183 41 l-134 -3 -3 -317
-2 -318 160 0 160 0 0 35 0 35 79 0 c54 0 129 -11 235 -35 86 -19 167 -35 181
-35 23 0 908 326 966 355 35 19 49 43 49 88 0 42 -46 87 -89 87 -23 0 -31 7
-44 40 -25 65 -75 78 -174 46 -21 -7 -22 -5 -17 23 14 67 -49 130 -113 115
-17 -4 -79 -57 -158 -134 -146 -142 -161 -150 -289 -150 -57 0 -88 5 -122 22
-37 17 -44 24 -33 32 128 98 172 126 231 145 236 77 407 316 408 567 0 270
-192 524 -445 587 -79 20 -178 27 -241 17z m227 -86 c120 -36 219 -106 290
-207 72 -102 94 -177 93 -312 0 -94 -4 -120 -27 -178 -54 -138 -155 -246 -281
-302 l-53 -24 -10 32 c-5 19 -23 41 -43 55 -48 32 -84 25 -187 -38 l-82 -50
-43 17 c-100 39 -205 129 -261 226 -71 121 -91 295 -48 428 53 165 201 310
362 353 74 20 222 20 290 0z m-51 -1019 c0 -20 -21 -40 -138 -129 -76 -57
-102 -82 -102 -99 0 -19 29 -37 193 -118 l192 -96 335 84 c184 46 340 81 348
78 47 -18 -7 -43 -462 -212 l-469 -175 -166 36 c-118 26 -190 36 -248 36 l-83
0 0 175 0 175 94 0 93 0 74 74 c66 65 219 172 284 196 24 9 55 -5 55 -25z
m520 -79 c0 -23 -76 -84 -124 -100 -27 -9 -51 -14 -53 -13 -1 2 31 36 72 76
63 61 78 71 90 61 8 -7 15 -18 15 -24z m-1190 -341 l0 -245 -90 0 -90 0 0 245
0 245 90 0 90 0 0 -245z m1383 231 c3 -8 0 -21 -6 -29 -7 -8 -129 -43 -283
-82 -249 -61 -274 -66 -299 -53 -25 14 -14 18 252 96 153 44 290 81 304 81 15
1 29 -5 32 -13z"/>
<path d="M3610 6985 c0 -25 -4 -35 -16 -35 -9 0 -31 -15 -50 -34 -30 -30 -34
-40 -34 -85 0 -93 31 -126 130 -136 73 -7 98 -42 70 -96 -15 -28 -105 -27
-122 1 -9 13 -24 20 -45 20 -27 0 -33 -4 -33 -21 0 -25 61 -89 84 -89 11 0 16
-9 16 -30 0 -28 3 -30 35 -30 32 0 35 3 35 28 0 23 6 30 36 41 51 19 76 63 71
129 -6 80 -58 122 -152 122 -39 0 -55 16 -55 55 0 43 16 55 72 55 37 0 50 -4
58 -20 12 -23 80 -29 80 -7 0 28 -40 76 -74 88 -31 11 -36 17 -36 46 0 31 -2
33 -35 33 -33 0 -35 -2 -35 -35z"/>
<path d="M2789 7086 c-3 -3 -4 -19 -1 -36 4 -27 8 -30 39 -30 33 0 34 2 31 33
-3 28 -7 32 -33 35 -17 2 -33 1 -36 -2z"/>
<path d="M2717 6863 c-4 -3 -7 -19 -7 -35 0 -25 -3 -28 -35 -28 -33 0 -35 -2
-35 -35 0 -33 2 -35 34 -35 32 0 35 -3 38 -32 3 -30 6 -33 41 -36 36 -3 37 -3
37 32 0 34 2 36 35 36 33 0 35 2 35 35 0 33 -2 35 -35 35 -33 0 -35 2 -35 35
0 33 -2 35 -33 35 -19 0 -37 -3 -40 -7z"/>
<path d="M4530 6805 c0 -33 2 -35 35 -35 33 0 35 2 35 35 0 33 -2 35 -35 35
-33 0 -35 -2 -35 -35z"/>
<path d="M2860 6515 c0 -33 2 -35 35 -35 33 0 35 2 35 35 0 33 -2 35 -35 35
-33 0 -35 -2 -35 -35z"/>
<path d="M4560 6515 c0 -33 -2 -35 -35 -35 -33 0 -35 -2 -35 -35 0 -33 2 -35
35 -35 33 0 35 -2 35 -35 0 -33 2 -35 35 -35 33 0 35 2 35 35 0 33 2 35 35 35
33 0 35 2 35 35 0 33 -2 35 -35 35 -33 0 -35 2 -35 35 0 33 -2 35 -35 35 -33
0 -35 -2 -35 -35z"/>
<path d="M4280 6375 c0 -33 2 -35 35 -35 33 0 35 2 35 35 0 33 -2 35 -35 35
-33 0 -35 -2 -35 -35z"/>
<path d="M3313 4633 l-132 -4 2 -348 2 -349 131 -7 c146 -8 214 -2 290 26 73
28 128 79 166 157 30 61 33 76 36 177 5 136 -17 205 -83 269 -73 72 -149 86
-412 79z m201 -173 c37 -14 56 -51 69 -130 8 -51 8 -86 -1 -131 -17 -95 -55
-125 -143 -113 l-49 7 0 183 c0 165 2 183 18 187 31 8 80 7 106 -3z"/>
<path d="M4098 4626 c-173 -50 -261 -194 -245 -401 10 -130 66 -224 165 -272
53 -26 66 -28 177 -28 87 0 137 6 183 19 l62 19 0 127 c0 71 3 135 6 144 7 18
-28 21 -134 10 l-61 -7 -3 -76 -3 -76 -35 -3 c-51 -4 -103 26 -117 68 -7 19
-12 78 -12 130 -1 106 15 155 59 178 35 18 134 10 198 -18 29 -13 55 -20 58
-17 3 3 16 46 29 96 l23 90 -32 12 c-47 18 -261 21 -318 5z"/>
<path d="M1795 4281 l0 -348 121 -6 c334 -17 485 59 461 234 -7 53 -29 85 -77
109 l-39 20 44 44 c54 55 67 112 40 181 -35 94 -101 115 -359 115 l-191 0 0
-349z m328 177 c37 -44 -3 -118 -63 -118 -55 0 -60 6 -60 82 l0 71 53 -6 c37
-5 57 -13 70 -29z m11 -269 c26 -20 35 -61 18 -85 -14 -21 -51 -34 -100 -34
l-50 0 -7 59 c-4 33 -4 65 0 70 12 20 110 13 139 -10z"/>
<path d="M2460 4378 c0 -152 4 -269 11 -293 27 -98 111 -154 244 -162 157 -10
267 36 315 132 24 49 25 56 28 313 l3 262 -108 0 -108 0 4 -244 3 -245 -26
-25 c-32 -33 -91 -35 -130 -5 l-27 21 3 249 3 249 -107 0 -108 0 0 -252z"/>
<path d="M4545 4280 l0 -350 242 0 c133 0 244 3 246 8 3 4 6 41 8 82 l4 75
-147 3 -148 3 0 49 0 50 109 0 c61 0 112 3 114 8 3 4 7 41 8 82 l4 75 -113 3
-112 3 0 44 0 45 139 0 138 0 7 38 c3 20 6 58 6 85 l0 47 -253 0 -253 0 1
-350z"/>
<path d="M5075 4555 c-3 -41 -4 -79 0 -85 3 -5 42 -10 86 -10 l79 0 1 -147 c1
-82 0 -201 -1 -265 l-2 -118 107 0 108 0 -8 136 c-3 75 -3 194 0 265 l8 129
72 0 c84 0 85 1 85 108 l0 62 -264 0 -264 0 -7 -75z"/>
<path d="M1442 3211 l2 -351 103 0 103 0 0 100 0 100 53 0 c69 0 150 24 204
61 30 21 51 48 74 94 28 58 31 71 28 138 -5 89 -36 144 -102 179 -39 21 -56
23 -254 26 l-213 3 2 -350z m313 176 c22 -18 27 -31 27 -71 0 -70 -25 -100
-86 -104 l-46 -3 0 100 0 101 39 0 c27 0 48 -7 66 -23z"/>
<path d="M2075 3210 l0 -350 206 0 206 0 7 80 c4 44 5 84 1 90 -4 6 -51 10
-112 10 l-105 0 7 260 8 260 -109 0 -110 0 1 -350z"/>
<path d="M2640 3318 c-40 -134 -88 -292 -106 -351 l-32 -108 106 3 107 3 9 58
8 57 98 0 98 0 7 -42 c13 -83 5 -78 121 -78 76 0 104 3 104 12 0 7 -41 165
-92 350 l-92 338 -131 0 -131 0 -74 -242z m229 -55 c11 -60 21 -111 21 -115 0
-5 -25 -8 -55 -8 -34 0 -55 4 -55 11 0 23 54 219 61 219 3 0 16 -48 28 -107z"/>
<path d="M3245 3210 l0 -350 98 0 97 0 -6 185 c-5 131 -4 185 4 185 6 0 54
-83 107 -185 l96 -185 117 0 117 0 1 350 2 350 -68 0 c-37 0 -82 -3 -100 -6
l-32 -7 7 -178 c4 -114 3 -179 -3 -179 -5 0 -53 83 -106 185 l-97 185 -117 0
-117 0 0 -350z"/>
<path d="M4014 3210 l1 -350 95 0 95 0 -4 193 c-1 106 1 188 5 184 5 -5 52
-90 105 -190 l96 -182 116 -3 117 -3 0 274 c0 151 3 308 6 350 l7 77 -79 0
c-43 0 -89 -3 -102 -6 l-23 -7 3 -178 c2 -99 -1 -178 -6 -176 -5 2 -52 85
-105 185 l-96 182 -116 0 -117 0 2 -350z"/>
<path d="M4783 3210 l2 -350 241 0 241 0 7 46 c3 26 6 64 6 85 l0 39 -145 0
-145 0 0 50 0 50 109 0 109 0 7 74 c4 41 4 79 1 85 -5 7 -49 11 -117 11 l-109
0 0 45 0 45 144 0 143 0 6 76 c4 42 4 80 1 85 -3 5 -117 9 -254 9 l-250 0 3
-350z"/>
<path d="M5365 3211 l0 -351 109 0 109 0 -7 105 -7 105 38 0 c38 0 38 0 72
-80 18 -43 42 -93 53 -111 19 -31 21 -32 76 -26 83 9 163 29 169 43 2 6 -23
49 -56 95 -33 46 -68 98 -77 114 -16 30 -16 30 24 72 103 108 90 282 -25 350
-48 28 -48 28 -263 31 l-215 3 0 -350z m320 174 c36 -35 34 -94 -3 -136 -26
-29 -31 -31 -71 -24 -38 6 -42 10 -37 29 3 11 6 51 6 89 l0 67 40 0 c30 0 47
-7 65 -25z"/>
</g>
</svg>
